<?xml version="1.0" standalone="no"?>
<!DOCTYPE svg PUBLIC "-//W3C//DTD SVG 20010904//EN"
 "http://www.w3.org/TR/2001/REC-SVG-20010904/DTD/svg10.dtd">
<svg version="1.0" xmlns="http://www.w3.org/2000/svg"
 width="512.000000pt" height="512.000000pt" viewBox="0 0 512.000000 512.000000"
 preserveAspectRatio="xMidYMid meet">
<metadata>
Created by potrace 1.14, written by Peter Selinger 2001-2017
</metadata>
<g transform="translate(0.000000,512.000000) scale(0.100000,-0.100000)"
fill="#000000" stroke="none">
<path d="M2503 4686 c-29 -29 -55 -51 -58 -48 -3 3 -5 -3 -5 -13 0 -10 -3 -16
-6 -12 -4 3 -22 -12 -40 -34 -19 -23 -34 -37 -34 -33 0 4 -11 -7 -25 -26 -14
-19 -25 -31 -25 -28 0 3 -115 -108 -256 -248 -141 -140 -261 -254 -267 -254
-6 0 -8 -2 -5 -5 5 -6 -166 -178 -182 -183 -6 -2 -8 -8 -4 -13 3 -5 1 -9 -4
-9 -13 0 -152 -139 -152 -153 0 -6 -3 -8 -6 -4 -3 3 -57 -46 -120 -109 -63
-63 -118 -114 -124 -114 -5 0 -9 -3 -8 -8 4 -9 -62 -72 -75 -72 -6 0 -8 -2 -5
-5 5 -5 -126 -139 -153 -156 -8 -5 -11 -9 -7 -9 7 0 -40 -50 -47 -50 -8 0
-125 -123 -125 -131 0 -5 -3 -8 -7 -7 -5 1 -90 -79 -190 -179 -101 -100 -183
-179 -183 -176 0 3 -13 -10 -29 -30 -15 -20 -31 -34 -35 -30 -3 3 -6 -1 -6
-10 0 -9 -7 -17 -16 -17 -8 0 -12 -4 -9 -10 3 -5 -1 -10 -9 -10 -8 0 -17 -8
-20 -17 -3 -10 -22 -29 -41 -42 -20 -13 -33 -26 -30 -29 2 -3 -2 -10 -11 -17
-13 -9 11 -11 107 -10 68 0 132 -3 141 -7 9 -4 19 -4 22 0 3 6 111 9 136 3 3
-1 5 -449 5 -996 l-1 -995 688 0 688 0 1 28 c0 15 1 303 1 639 l0 613 21 1
c12 0 41 2 65 3 23 2 45 0 48 -5 3 -5 10 -6 16 -2 16 9 459 10 465 0 2 -4 12
-3 21 1 9 4 52 8 94 8 46 -1 78 3 78 9 0 6 4 4 9 -4 6 -9 11 -10 15 -2 4 6 13
8 19 4 16 -10 148 -10 154 0 2 4 10 4 16 0 7 -4 21 -8 32 -9 37 -2 40 -4 41
-34 1 -16 -2 -27 -6 -25 -9 5 -6 -27 4 -43 4 -7 2 -12 -6 -12 -8 0 -9 -3 -2
-8 11 -7 11 -68 1 -79 -4 -3 -2 -12 4 -20 9 -10 8 -17 -1 -28 -7 -8 -8 -15 -3
-15 5 0 9 -9 10 -20 1 -11 -1 -19 -5 -16 -4 2 -7 -7 -7 -20 0 -13 4 -24 9 -24
5 0 3 -7 -5 -16 -10 -13 -10 -17 0 -24 11 -6 11 -9 0 -13 -12 -5 -12 -6 0 -6
11 -1 11 -4 0 -18 -11 -13 -11 -17 -2 -20 9 -3 10 -10 3 -24 -8 -14 -7 -19 2
-19 8 0 9 -3 3 -8 -14 -10 -17 -32 -4 -32 5 0 7 -5 3 -12 -4 -7 -8 -172 -9
-368 l-1 -357 301 0 c166 0 308 -4 315 -8 8 -5 11 -4 7 1 -3 6 24 10 69 10 42
-1 74 -5 74 -11 0 -7 3 -7 8 0 9 13 225 13 234 0 5 -7 8 -7 8 0 0 12 301 11
321 0 7 -5 10 -4 6 3 -5 6 6 9 32 6 34 -3 39 -1 43 21 3 13 0 29 -5 34 -6 6
-7 11 -1 11 5 0 9 23 9 50 0 28 -4 50 -8 50 -5 0 -5 5 -1 11 9 16 11 109 1
109 -5 0 -5 5 -1 11 9 16 11 109 1 109 -5 0 -5 5 -1 11 9 16 11 109 1 109 -5
0 -5 5 -1 11 9 16 11 109 1 109 -5 0 -5 5 -1 11 9 16 11 109 1 109 -5 0 -5 5
-1 11 11 18 10 99 -1 103 -7 3 -7 5 0 5 11 1 12 72 1 90 -4 6 -4 11 1 11 4 0
8 23 8 50 0 28 -4 50 -8 50 -5 0 -5 5 -1 11 9 16 11 109 1 109 -5 0 -5 5 -1
11 9 16 11 109 1 109 -5 0 -5 5 -1 11 9 16 11 109 1 109 -5 0 -5 5 -1 11 9 16
11 109 1 109 -5 0 -5 5 -1 11 9 16 11 109 1 109 -5 0 -5 5 -1 11 9 16 11 109
1 109 -5 0 -5 5 -1 11 9 15 9 103 0 118 -4 6 -2 11 4 11 6 0 8 5 5 10 -7 12
-12 11 100 14 54 1 93 -2 97 -8 5 -7 8 -7 8 -1 0 6 50 10 130 9 71 0 130 2
130 5 0 9 -20 37 -20 29 0 -4 -76 69 -170 162 -93 93 -170 167 -170 164 0 -3
-12 9 -27 27 -16 19 -50 55 -78 81 -27 27 -67 65 -87 85 -21 19 -38 40 -38 44
0 5 -6 9 -14 9 -8 0 -18 9 -21 20 -4 11 -10 18 -14 15 -4 -2 -14 7 -21 20 -7
14 -17 25 -21 25 -11 0 -129 120 -129 131 0 5 -3 8 -7 7 -5 -2 -73 61 -151
140 -79 78 -149 142 -155 142 -5 0 -7 3 -4 7 4 3 -12 23 -36 44 -23 21 -190
185 -371 364 -180 179 -332 325 -338 325 -5 0 -7 4 -4 8 3 5 -6 15 -19 22 -13
7 -22 17 -19 22 3 4 -3 8 -12 8 -10 0 -14 3 -11 6 4 4 -3 15 -16 26 -51 43
-124 118 -119 123 3 3 1 5 -5 5 -6 0 -76 65 -157 145 -80 80 -147 145 -149
145 -1 0 -25 -24 -54 -54z"/>
</g>
</svg>
